<mxfile host="www.draw.io" modified="2020-02-15T07:16:33.341Z" agent="Mozilla/5.0 (Windows NT 10.0; Win64; x64; rv:72.0) Gecko/20100101 Firefox/72.0" etag="RxPiJjNKPPVMaaU03NBP" version="12.7.0" type="github">
  <diagram id="73CJ_e9AsMWEr6FTmH8N" name="Page-1">
    <mxGraphModel dx="1738" dy="1265" grid="1" gridSize="10" guides="1" tooltips="1" connect="1" arrows="0" fold="1" page="0" pageScale="1" pageWidth="827" pageHeight="1169" math="0" shadow="0">
      <root>
        <mxCell id="0"/>
        <mxCell id="1" parent="0"/>
        <mxCell id="JBM-vlUWBhWNvBb9N0an-7" value="9300" style="shape=dimension;direction=south;whiteSpace=wrap;html=1;align=left;points=[];verticalAlign=middle;labelBackgroundColor=#ffffff;fontSize=20;" vertex="1" parent="1">
          <mxGeometry x="-99" width="40" height="930" as="geometry"/>
        </mxCell>
        <mxCell id="JBM-vlUWBhWNvBb9N0an-8" value="7500" style="shape=dimension;direction=south;whiteSpace=wrap;html=1;align=left;points=[];verticalAlign=middle;labelBackgroundColor=#ffffff;fontSize=20;" vertex="1" parent="1">
          <mxGeometry x="-59" width="40" height="750" as="geometry"/>
        </mxCell>
        <mxCell id="JBM-vlUWBhWNvBb9N0an-9" value="1200" style="shape=dimension;direction=south;whiteSpace=wrap;html=1;align=left;points=[];verticalAlign=middle;labelBackgroundColor=#ffffff;fontSize=20;" vertex="1" parent="1">
          <mxGeometry x="-59" y="750" width="40" height="120" as="geometry"/>
        </mxCell>
        <mxCell id="JBM-vlUWBhWNvBb9N0an-12" value="&lt;div&gt;12200&lt;/div&gt;" style="shape=dimension;direction=west;whiteSpace=wrap;html=1;align=center;points=[];verticalAlign=top;spacingTop=-8;labelBackgroundColor=#ffffff;fontSize=20;" vertex="1" parent="1">
          <mxGeometry x="1" y="-96" width="1220" height="40" as="geometry"/>
        </mxCell>
        <mxCell id="JBM-vlUWBhWNvBb9N0an-13" value="3900" style="shape=dimension;direction=west;whiteSpace=wrap;html=1;align=center;points=[];verticalAlign=top;spacingTop=-8;labelBackgroundColor=#ffffff;fontSize=20;" vertex="1" parent="1">
          <mxGeometry x="1" y="-56" width="390" height="40" as="geometry"/>
        </mxCell>
        <mxCell id="JBM-vlUWBhWNvBb9N0an-14" value="2150" style="shape=dimension;direction=west;whiteSpace=wrap;html=1;align=center;points=[];verticalAlign=top;spacingTop=-8;labelBackgroundColor=#ffffff;fontSize=20;" vertex="1" parent="1">
          <mxGeometry x="391" y="-56" width="215" height="40" as="geometry"/>
        </mxCell>
        <mxCell id="JBM-vlUWBhWNvBb9N0an-15" value="1600" style="shape=dimension;direction=west;whiteSpace=wrap;html=1;align=center;points=[];verticalAlign=top;spacingTop=-8;labelBackgroundColor=#ffffff;fontSize=20;" vertex="1" parent="1">
          <mxGeometry x="606" y="-57" width="160" height="40" as="geometry"/>
        </mxCell>
        <mxCell id="JBM-vlUWBhWNvBb9N0an-16" value="2600" style="shape=dimension;direction=west;whiteSpace=wrap;html=1;align=center;points=[];verticalAlign=top;spacingTop=-8;labelBackgroundColor=#ffffff;fontSize=20;" vertex="1" parent="1">
          <mxGeometry x="766" y="-56" width="260" height="40" as="geometry"/>
        </mxCell>
        <mxCell id="JBM-vlUWBhWNvBb9N0an-17" value="1950" style="shape=dimension;direction=west;whiteSpace=wrap;html=1;align=center;points=[];verticalAlign=top;spacingTop=-8;labelBackgroundColor=#ffffff;fontSize=20;" vertex="1" parent="1">
          <mxGeometry x="1026" y="-56" width="195" height="40" as="geometry"/>
        </mxCell>
        <mxCell id="JBM-vlUWBhWNvBb9N0an-18" value="" style="verticalLabelPosition=bottom;html=1;verticalAlign=top;align=center;shape=mxgraph.floorplan.doorRight;aspect=fixed;fontSize=20;direction=east;flipV=1;rotation=-90;" vertex="1" parent="1">
          <mxGeometry x="306" y="-12" width="80" height="85" as="geometry"/>
        </mxCell>
        <mxCell id="JBM-vlUWBhWNvBb9N0an-19" value="???" style="shape=dimension;direction=west;whiteSpace=wrap;html=1;align=center;points=[];verticalAlign=top;spacingTop=-8;labelBackgroundColor=#ffffff;fontSize=20;" vertex="1" parent="1">
          <mxGeometry x="16" y="15.81" width="284" height="40" as="geometry"/>
        </mxCell>
        <mxCell id="JBM-vlUWBhWNvBb9N0an-20" value="" style="verticalLabelPosition=bottom;html=1;verticalAlign=top;align=center;shape=mxgraph.floorplan.window;fontSize=20;" vertex="1" parent="1">
          <mxGeometry x="506" y="-12" width="100" height="24" as="geometry"/>
        </mxCell>
        <mxCell id="JBM-vlUWBhWNvBb9N0an-23" value="" style="verticalLabelPosition=bottom;html=1;verticalAlign=top;align=center;shape=mxgraph.floorplan.doorLeft;aspect=fixed;fontSize=20;flipH=0;flipV=1;" vertex="1" parent="1">
          <mxGeometry x="392" y="104.4" width="80" height="85" as="geometry"/>
        </mxCell>
        <mxCell id="JBM-vlUWBhWNvBb9N0an-24" value="" style="verticalLabelPosition=bottom;html=1;verticalAlign=top;align=center;shape=mxgraph.floorplan.wall;fillColor=#000000;direction=south;strokeColor=none;rotation=-180;" vertex="1" parent="1">
          <mxGeometry x="391" y="190" width="12" height="50.4" as="geometry"/>
        </mxCell>
        <mxCell id="JBM-vlUWBhWNvBb9N0an-26" value="" style="whiteSpace=wrap;html=1;labelBackgroundColor=none;strokeColor=none;fillColor=#000000;fontSize=12;fontColor=none;align=left;" vertex="1" parent="1">
          <mxGeometry x="-8" width="24" height="930" as="geometry"/>
        </mxCell>
        <mxCell id="JBM-vlUWBhWNvBb9N0an-27" value="" style="whiteSpace=wrap;html=1;labelBackgroundColor=none;strokeColor=none;fillColor=#000000;fontSize=12;fontColor=none;align=left;rotation=90;" vertex="1" parent="1">
          <mxGeometry x="436" y="-56.07" width="24" height="111.88" as="geometry"/>
        </mxCell>
        <mxCell id="JBM-vlUWBhWNvBb9N0an-28" value="" style="whiteSpace=wrap;html=1;labelBackgroundColor=none;strokeColor=none;fillColor=#000000;fontSize=12;fontColor=none;align=left;rotation=90;" vertex="1" parent="1">
          <mxGeometry x="136" y="-147" width="24" height="293.75" as="geometry"/>
        </mxCell>
        <mxCell id="JBM-vlUWBhWNvBb9N0an-29" value="" style="whiteSpace=wrap;html=1;labelBackgroundColor=none;strokeColor=none;fillColor=#000000;fontSize=12;fontColor=none;align=left;rotation=-180;" vertex="1" parent="1">
          <mxGeometry x="392" y="-12" width="24" height="111.88" as="geometry"/>
        </mxCell>
        <mxCell id="JBM-vlUWBhWNvBb9N0an-30" value="" style="whiteSpace=wrap;html=1;labelBackgroundColor=none;strokeColor=none;fillColor=#000000;fontSize=12;fontColor=none;align=left;rotation=-180;" vertex="1" parent="1">
          <mxGeometry x="392" y="190" width="24" height="71.88" as="geometry"/>
        </mxCell>
        <mxCell id="JBM-vlUWBhWNvBb9N0an-31" value="???" style="shape=dimension;direction=west;whiteSpace=wrap;html=1;align=center;points=[];verticalAlign=top;spacingTop=-8;labelBackgroundColor=#ffffff;fontSize=20;" vertex="1" parent="1">
          <mxGeometry x="416" y="15.81" width="84" height="40" as="geometry"/>
        </mxCell>
        <mxCell id="JBM-vlUWBhWNvBb9N0an-34" value="" style="whiteSpace=wrap;html=1;labelBackgroundColor=none;strokeColor=none;fillColor=#000000;fontSize=12;fontColor=none;align=left;rotation=90;" vertex="1" parent="1">
          <mxGeometry x="416" y="213" width="24" height="71.88" as="geometry"/>
        </mxCell>
        <mxCell id="JBM-vlUWBhWNvBb9N0an-35" value="" style="whiteSpace=wrap;html=1;labelBackgroundColor=none;strokeColor=none;fillColor=#000000;fontSize=12;fontColor=none;align=left;rotation=90;" vertex="1" parent="1">
          <mxGeometry x="68.5" y="662.5" width="24" height="176.88" as="geometry"/>
        </mxCell>
        <mxCell id="JBM-vlUWBhWNvBb9N0an-36" value="???" style="shape=dimension;direction=west;whiteSpace=wrap;html=1;align=center;points=[];verticalAlign=top;spacingTop=-8;labelBackgroundColor=#ffffff;fontSize=20;" vertex="1" parent="1">
          <mxGeometry x="16" y="700" width="154" height="40" as="geometry"/>
        </mxCell>
        <mxCell id="JBM-vlUWBhWNvBb9N0an-38" value="" style="verticalLabelPosition=bottom;html=1;verticalAlign=top;align=center;shape=mxgraph.floorplan.window;labelBackgroundColor=none;strokeColor=#000000;fillColor=none;fontSize=12;fontColor=none;" vertex="1" parent="1">
          <mxGeometry x="170" y="750" width="190" height="10" as="geometry"/>
        </mxCell>
        <mxCell id="JBM-vlUWBhWNvBb9N0an-59" value="" style="whiteSpace=wrap;html=1;labelBackgroundColor=none;strokeColor=none;fillColor=#000000;fontSize=12;fontColor=none;align=left;rotation=90;" vertex="1" parent="1">
          <mxGeometry x="436" y="662.5" width="24" height="176.88" as="geometry"/>
        </mxCell>
        <mxCell id="JBM-vlUWBhWNvBb9N0an-60" value="" style="whiteSpace=wrap;html=1;labelBackgroundColor=none;strokeColor=#000000;fillColor=none;fontSize=12;fontColor=none;align=left;rotation=-90;" vertex="1" parent="1">
          <mxGeometry x="439.38" y="883.13" width="24" height="83.75" as="geometry"/>
        </mxCell>
        <mxCell id="JBM-vlUWBhWNvBb9N0an-61" value="" style="whiteSpace=wrap;html=1;labelBackgroundColor=none;strokeColor=none;fillColor=#000000;fontSize=12;fontColor=none;align=left;rotation=90;" vertex="1" parent="1">
          <mxGeometry x="43.19" y="874.69" width="24" height="106.26" as="geometry"/>
        </mxCell>
        <mxCell id="JBM-vlUWBhWNvBb9N0an-62" value="" style="verticalLabelPosition=bottom;html=1;verticalAlign=top;align=center;shape=mxgraph.floorplan.window;labelBackgroundColor=none;strokeColor=#000000;fillColor=none;fontSize=12;fontColor=none;" vertex="1" parent="1">
          <mxGeometry x="110" y="920" width="300" height="10" as="geometry"/>
        </mxCell>
        <mxCell id="JBM-vlUWBhWNvBb9N0an-63" value="" style="whiteSpace=wrap;html=1;labelBackgroundColor=none;strokeColor=#000000;fillColor=none;fontSize=12;fontColor=none;align=left;rotation=-180;" vertex="1" parent="1">
          <mxGeometry x="440" y="763.12" width="24" height="150" as="geometry"/>
        </mxCell>
        <mxCell id="JBM-vlUWBhWNvBb9N0an-64" value="" style="verticalLabelPosition=bottom;html=1;verticalAlign=top;align=center;shape=mxgraph.floorplan.window;labelBackgroundColor=none;strokeColor=#000000;fillColor=none;fontSize=12;fontColor=none;" vertex="1" parent="1">
          <mxGeometry x="540" y="745.94" width="239" height="10" as="geometry"/>
        </mxCell>
        <mxCell id="JBM-vlUWBhWNvBb9N0an-65" value="" style="whiteSpace=wrap;html=1;labelBackgroundColor=none;strokeColor=none;fillColor=#000000;fontSize=12;fontColor=none;align=left;rotation=-180;" vertex="1" parent="1">
          <mxGeometry x="810" y="760" width="24" height="176.88" as="geometry"/>
        </mxCell>
        <mxCell id="JBM-vlUWBhWNvBb9N0an-67" value="" style="whiteSpace=wrap;html=1;labelBackgroundColor=none;strokeColor=none;fillColor=#000000;fontSize=12;fontColor=none;align=left;rotation=90;" vertex="1" parent="1">
          <mxGeometry x="797.42" y="729.14" width="24" height="51.72" as="geometry"/>
        </mxCell>
        <mxCell id="JBM-vlUWBhWNvBb9N0an-68" value="" style="whiteSpace=wrap;html=1;labelBackgroundColor=none;strokeColor=#000000;fillColor=none;fontSize=12;fontColor=none;align=left;" vertex="1" parent="1">
          <mxGeometry x="821.42" y="876.88" width="208.58" height="60" as="geometry"/>
        </mxCell>
        <mxCell id="JBM-vlUWBhWNvBb9N0an-69" value="600" style="shape=dimension;direction=south;whiteSpace=wrap;html=1;align=left;points=[];verticalAlign=middle;labelBackgroundColor=#ffffff;fontSize=20;" vertex="1" parent="1">
          <mxGeometry x="-59" y="870" width="40" height="60" as="geometry"/>
        </mxCell>
        <mxCell id="JBM-vlUWBhWNvBb9N0an-71" value="" style="whiteSpace=wrap;html=1;labelBackgroundColor=none;strokeColor=none;fillColor=#000000;fontSize=12;fontColor=none;align=left;rotation=90;" vertex="1" parent="1">
          <mxGeometry x="1113.7" y="790.7" width="24" height="193.12" as="geometry"/>
        </mxCell>
        <mxCell id="JBM-vlUWBhWNvBb9N0an-73" value="" style="whiteSpace=wrap;html=1;labelBackgroundColor=none;strokeColor=none;fillColor=#000000;fontSize=12;fontColor=none;align=left;rotation=-180;" vertex="1" parent="1">
          <mxGeometry x="1210" y="-30.13" width="24" height="966.75" as="geometry"/>
        </mxCell>
        <mxCell id="JBM-vlUWBhWNvBb9N0an-74" value="&lt;div&gt;1750&lt;/div&gt;" style="shape=dimension;direction=north;whiteSpace=wrap;html=1;align=right;points=[];verticalAlign=middle;labelBackgroundColor=#ffffff;strokeColor=#000000;fillColor=none;fontSize=20;fontColor=none;" vertex="1" parent="1">
          <mxGeometry x="1270" y="185" width="40" height="175" as="geometry"/>
        </mxCell>
        <mxCell id="JBM-vlUWBhWNvBb9N0an-75" value="&lt;div&gt;12200&lt;/div&gt;" style="shape=dimension;whiteSpace=wrap;html=1;align=center;points=[];verticalAlign=bottom;spacingBottom=-5;labelBackgroundColor=#ffffff;strokeColor=#000000;fillColor=none;fontSize=20;fontColor=none;" vertex="1" parent="1">
          <mxGeometry x="1" y="1006.88" width="1220" height="40" as="geometry"/>
        </mxCell>
        <mxCell id="JBM-vlUWBhWNvBb9N0an-76" value="4500" style="shape=dimension;whiteSpace=wrap;html=1;align=center;points=[];verticalAlign=bottom;spacingBottom=-5;labelBackgroundColor=#ffffff;strokeColor=#000000;fillColor=none;fontSize=20;fontColor=none;" vertex="1" parent="1">
          <mxGeometry x="1" y="966.88" width="450" height="40" as="geometry"/>
        </mxCell>
        <mxCell id="JBM-vlUWBhWNvBb9N0an-77" value="3700" style="shape=dimension;whiteSpace=wrap;html=1;align=center;points=[];verticalAlign=bottom;spacingBottom=-5;labelBackgroundColor=#ffffff;strokeColor=#000000;fillColor=none;fontSize=20;fontColor=none;" vertex="1" parent="1">
          <mxGeometry x="451" y="966.88" width="370" height="40" as="geometry"/>
        </mxCell>
        <mxCell id="JBM-vlUWBhWNvBb9N0an-78" value="2100" style="shape=dimension;whiteSpace=wrap;html=1;align=center;points=[];verticalAlign=bottom;spacingBottom=-5;labelBackgroundColor=#ffffff;strokeColor=#000000;fillColor=none;fontSize=20;fontColor=none;" vertex="1" parent="1">
          <mxGeometry x="821" y="966.88" width="210" height="40" as="geometry"/>
        </mxCell>
        <mxCell id="JBM-vlUWBhWNvBb9N0an-79" value="1900" style="shape=dimension;whiteSpace=wrap;html=1;align=center;points=[];verticalAlign=bottom;spacingBottom=-5;labelBackgroundColor=#ffffff;strokeColor=#000000;fillColor=none;fontSize=20;fontColor=none;" vertex="1" parent="1">
          <mxGeometry x="1031" y="966.88" width="190" height="40" as="geometry"/>
        </mxCell>
        <mxCell id="JBM-vlUWBhWNvBb9N0an-80" value="" style="verticalLabelPosition=bottom;html=1;verticalAlign=top;align=center;shape=mxgraph.floorplan.window;labelBackgroundColor=none;strokeColor=#000000;fillColor=none;fontSize=12;fontColor=none;" vertex="1" parent="1">
          <mxGeometry x="497.42" y="920" width="232.58" height="10" as="geometry"/>
        </mxCell>
        <mxCell id="JBM-vlUWBhWNvBb9N0an-81" value="" style="whiteSpace=wrap;html=1;labelBackgroundColor=none;strokeColor=none;fillColor=#000000;fontSize=12;fontColor=none;align=left;rotation=90;" vertex="1" parent="1">
          <mxGeometry x="760.78" y="879.23" width="24" height="91.55" as="geometry"/>
        </mxCell>
        <mxCell id="JBM-vlUWBhWNvBb9N0an-83" value="???" style="shape=dimension;direction=west;whiteSpace=wrap;html=1;align=center;points=[];verticalAlign=top;spacingTop=-8;labelBackgroundColor=#ffffff;fontSize=20;" vertex="1" parent="1">
          <mxGeometry x="360" y="700" width="70" height="40" as="geometry"/>
        </mxCell>
        <mxCell id="JBM-vlUWBhWNvBb9N0an-84" value="" style="whiteSpace=wrap;html=1;labelBackgroundColor=none;strokeColor=none;fillColor=#000000;fontSize=12;fontColor=none;align=left;rotation=-180;" vertex="1" parent="1">
          <mxGeometry x="439.38" y="362.48" width="24" height="400.64" as="geometry"/>
        </mxCell>
        <mxCell id="JBM-vlUWBhWNvBb9N0an-85" value="???" style="shape=dimension;direction=west;whiteSpace=wrap;html=1;align=center;points=[];verticalAlign=top;spacingTop=-8;labelBackgroundColor=#ffffff;fontSize=20;" vertex="1" parent="1">
          <mxGeometry x="16" y="873.12" width="84" height="40" as="geometry"/>
        </mxCell>
        <mxCell id="JBM-vlUWBhWNvBb9N0an-86" value="???" style="shape=dimension;direction=west;whiteSpace=wrap;html=1;align=center;points=[];verticalAlign=top;spacingTop=-8;labelBackgroundColor=#ffffff;fontSize=20;" vertex="1" parent="1">
          <mxGeometry x="110" y="874.69" width="300" height="40" as="geometry"/>
        </mxCell>
        <mxCell id="JBM-vlUWBhWNvBb9N0an-87" value="9050" style="shape=dimension;direction=north;whiteSpace=wrap;html=1;align=right;points=[];verticalAlign=middle;labelBackgroundColor=#ffffff;strokeColor=#000000;fillColor=none;fontSize=20;fontColor=none;" vertex="1" parent="1">
          <mxGeometry x="1320" y="-40" width="40" height="905" as="geometry"/>
        </mxCell>
        <mxCell id="JBM-vlUWBhWNvBb9N0an-88" value="2250" style="shape=dimension;direction=north;whiteSpace=wrap;html=1;align=right;points=[];verticalAlign=middle;labelBackgroundColor=#ffffff;strokeColor=#000000;fillColor=none;fontSize=20;fontColor=none;" vertex="1" parent="1">
          <mxGeometry x="1270" y="-40" width="40" height="225" as="geometry"/>
        </mxCell>
        <mxCell id="JBM-vlUWBhWNvBb9N0an-89" value="&lt;div&gt;4450&lt;/div&gt;" style="shape=dimension;direction=north;whiteSpace=wrap;html=1;align=right;points=[];verticalAlign=middle;labelBackgroundColor=#ffffff;strokeColor=#000000;fillColor=none;fontSize=20;fontColor=none;" vertex="1" parent="1">
          <mxGeometry x="1270" y="360" width="40" height="445" as="geometry"/>
        </mxCell>
        <mxCell id="JBM-vlUWBhWNvBb9N0an-90" value="&lt;div&gt;600&lt;/div&gt;" style="shape=dimension;direction=north;whiteSpace=wrap;html=1;align=right;points=[];verticalAlign=middle;labelBackgroundColor=#ffffff;strokeColor=#000000;fillColor=none;fontSize=20;fontColor=none;" vertex="1" parent="1">
          <mxGeometry x="1270" y="805" width="40" height="60" as="geometry"/>
        </mxCell>
        <mxCell id="JBM-vlUWBhWNvBb9N0an-91" value="" style="whiteSpace=wrap;html=1;labelBackgroundColor=none;strokeColor=#000000;fillColor=none;fontSize=12;fontColor=none;align=left;rotation=-180;" vertex="1" parent="1">
          <mxGeometry x="816" y="367.82" width="12" height="378.12" as="geometry"/>
        </mxCell>
      </root>
    </mxGraphModel>
  </diagram>
</mxfile>
